HIERARCHY
ROOT joint_Root
{
	OFFSET 0.0 0.0 0.0
	CHANNELS 6 Xposition Yposition Zposition Zrotation Xrotation Yrotation 
	JOINT Hips
	{
		OFFSET -0.726466 93.3139 -2.00062
		CHANNELS 6 Xposition Yposition Zposition Zrotation Xrotation Yrotation 
		JOINT Spine
		{
			OFFSET 15.7357 0.0 0.0
			CHANNELS 6 Xposition Yposition Zposition Zrotation Xrotation Yrotation 
			JOINT Chest
			{
				OFFSET 8.98455 -0.406207 0.0
				CHANNELS 6 Xposition Yposition Zposition Zrotation Xrotation Yrotation 
				JOINT Neck
				{
					OFFSET 16.3773 0.0 0.0
					CHANNELS 6 Xposition Yposition Zposition Zrotation Xrotation Yrotation 
					JOINT Head
					{
						OFFSET 6.45672 0.0 0.0
						CHANNELS 6 Xposition Yposition Zposition Zrotation Xrotation Yrotation 
						End Site
						{
							OFFSET 0.0 0.0 0.0
						}
					}
				}
				JOINT Shoulder_L
				{
					OFFSET 12.9942 -0.242716 4.98039
					CHANNELS 6 Xposition Yposition Zposition Zrotation Xrotation Yrotation 
					JOINT UpperArm_L
					{
						OFFSET 5.34809 0.0 0.0
						CHANNELS 6 Xposition Yposition Zposition Zrotation Xrotation Yrotation 
						JOINT LowerArm_L
						{
							OFFSET 24.3286 1.87007e-05 0.0
							CHANNELS 6 Xposition Yposition Zposition Zrotation Xrotation Yrotation 
							JOINT Hand_L
							{
								OFFSET 22.2916 0.0 0.0
								CHANNELS 6 Xposition Yposition Zposition Zrotation Xrotation Yrotation 
								End Site
								{
									OFFSET 0.0 0.0 0.0
								}
							}
						}
					}
				}
				JOINT Shoulder_R
				{
					OFFSET 12.9945 -0.242716 -4.98039
					CHANNELS 6 Xposition Yposition Zposition Zrotation Xrotation Yrotation 
					JOINT UpperArm_R
					{
						OFFSET -5.34813 0.0 0.0
						CHANNELS 6 Xposition Yposition Zposition Zrotation Xrotation Yrotation 
						JOINT LowerArm_R
						{
							OFFSET -24.3289 0.000322201 0.0
							CHANNELS 6 Xposition Yposition Zposition Zrotation Xrotation Yrotation 
							JOINT Hand_R
							{
								OFFSET -22.2915 -0.000108084 0.0
								CHANNELS 6 Xposition Yposition Zposition Zrotation Xrotation Yrotation 
								End Site
								{
									OFFSET 0.0 0.0 0.0
								}
							}
						}
					}
				}
			}
		}
		JOINT UpperLeg_L
		{
			OFFSET -2.19248 -6.46944 0.0
			CHANNELS 6 Xposition Yposition Zposition Zrotation Xrotation Yrotation 
			JOINT LowerLeg_L
			{
				OFFSET 39.0811 0.0 -1.23785e-05
				CHANNELS 6 Xposition Yposition Zposition Zrotation Xrotation Yrotation 
				JOINT Foot_L
				{
					OFFSET 40.9854 0.0 -1.26872e-05
					CHANNELS 6 Xposition Yposition Zposition Zrotation Xrotation Yrotation 
					JOINT Toes_L
					{
						OFFSET 11.7543 0.0 0.0
						CHANNELS 6 Xposition Yposition Zposition Zrotation Xrotation Yrotation 
						End Site
						{
							OFFSET 0.0 0.0 0.0
						}
					}
				}
			}
		}
		JOINT UpperLeg_R
		{
			OFFSET -2.19251 6.46944 0.0
			CHANNELS 6 Xposition Yposition Zposition Zrotation Xrotation Yrotation 
			JOINT LowerLeg_R
			{
				OFFSET -39.0811 -0.00228153 -0.0401928
				CHANNELS 6 Xposition Yposition Zposition Zrotation Xrotation Yrotation 
				JOINT Foot_R
				{
					OFFSET -40.9854 0.0 0.0
					CHANNELS 6 Xposition Yposition Zposition Zrotation Xrotation Yrotation 
					JOINT Toes_R
					{
						OFFSET -11.7543 0.0 0.0
						CHANNELS 6 Xposition Yposition Zposition Zrotation Xrotation Yrotation 
						End Site
						{
							OFFSET 0.0 0.0 0.0
						}
					}
				}
			}
		}
	}
}
MOTION
Frames:	6
Frame Time:	0.0333333
0.000000 0.000000 0.000000 0.000000 0.000000 -0.000000 -0.119131 91.866500 -2.397980 87.573300 -3.226290 3.913960 15.735700 0.000005 -0.000001 85.931800 82.392500 -85.326700 8.984550 -0.406207 -0.000000 7.417700 -1.077170 1.278800 16.377300 -0.000001 -0.000001 3.179560 -0.486388 0.555508 6.456720 -0.000001 -0.000000 0.695980 0.476190 -2.173380 12.994200 -0.242716 4.980390 -90.046500 0.154957 -73.295300 5.348090 -0.000007 -0.000001 -64.580700 36.988200 -19.459500 24.328600 0.000019 0.000005 3.838320 6.025470 -32.584200 22.291600 -0.000001 0.000005 6.736570 5.662240 -16.320400 12.994500 -0.242716 -4.980390 88.383500 5.470020 -73.509000 -5.348130 -0.000001 -0.000004 -51.268400 39.404200 -26.480500 -24.328900 0.000322 -0.000009 1.776440 2.822000 -32.222900 -22.291500 -0.000108 -0.000004 11.747100 5.661170 -16.185800 -2.192480 -6.469440 -0.000000 -170.778000 -18.473100 -5.194520 39.081100 -0.000007 -0.000012 -0.150279 0.309551 25.895500 40.985400 -0.000006 -0.000013 -4.725610 -1.406860 -65.049500 11.754300 -0.000000 0.000003 -0.000077 -0.000819 -16.609100 -2.192510 6.469440 -0.000001 175.790000 22.421600 175.512000 -39.081100 -0.002282 -0.040193 0.045436 -0.094021 24.132700 -40.985400 0.000008 0.000006 0.673551 3.802970 -63.537200 -11.754300 -0.000006 -0.000006 -0.005253 -0.063894 -19.173000
0.000000 0.000000 0.000000 0.000000 0.000000 -0.000000 -0.089734 91.855200 -2.419640 87.568800 -3.348760 4.012080 15.735700 0.000005 -0.000001 86.016600 82.352300 -85.374000 8.984550 -0.406207 -0.000000 7.499710 -1.059960 1.353340 16.377300 -0.000001 -0.000001 3.192340 -0.519598 0.610881 6.456720 -0.000001 -0.000000 0.612031 0.388757 -2.294310 12.994200 -0.242716 4.980390 -90.064400 0.213555 -73.212500 5.348090 -0.000007 -0.000001 -63.474900 36.276600 -20.535300 24.328600 0.000019 0.000005 3.962550 5.983940 -33.601300 22.291600 -0.000001 0.000005 7.820760 5.666670 -16.889800 12.994500 -0.242716 -4.980390 88.536500 4.917300 -73.403400 -5.348130 -0.000001 -0.000004 -47.861700 43.616800 -27.671600 -24.328900 0.000322 -0.000009 2.227140 3.136910 -35.405400 -22.291500 -0.000108 -0.000004 13.008400 5.664410 -16.588100 -2.192480 -6.469440 -0.000000 -170.761000 -18.579200 -5.134840 39.081100 -0.000007 -0.000012 -0.146563 0.300566 25.995100 40.985400 -0.000006 -0.000013 -4.704490 -1.440180 -65.096400 11.754300 -0.000000 0.000003 -0.000081 -0.000860 -16.610700 -2.192510 6.469440 -0.000001 175.753000 22.412400 175.574000 -39.081100 -0.002282 -0.040193 0.046018 -0.095193 24.161300 -40.985400 0.000008 0.000006 0.734099 3.881900 -63.584700 -11.754300 -0.000006 -0.000006 -0.005049 -0.061942 -19.093400
0.000000 0.000000 0.000000 0.000000 0.000000 -0.000000 -0.083403 91.856600 -2.451580 87.577200 -3.284510 4.080380 15.735700 0.000005 -0.000001 86.093900 82.343500 -85.419000 8.984550 -0.406207 -0.000000 7.518790 -1.040560 1.416780 16.377300 -0.000001 -0.000001 3.240110 -0.628557 0.618515 6.456720 -0.000001 -0.000000 0.575147 0.168386 -2.198640 12.994200 -0.242716 4.980390 -90.073600 0.241020 -73.023300 5.348090 -0.000007 -0.000001 -61.150000 35.106800 -22.673100 24.328600 0.000019 0.000005 4.416900 6.289920 -35.182400 22.291600 -0.000001 0.000005 8.541800 5.668860 -17.205600 12.994500 -0.242716 -4.980390 88.699000 4.325150 -73.240800 -5.348130 -0.000001 -0.000004 -44.687300 47.261700 -28.061000 -24.328900 0.000322 -0.000009 3.310690 3.963860 -39.920400 -22.291500 -0.000108 -0.000004 13.051600 5.667570 -17.029300 -2.192480 -6.469440 -0.000000 -170.754000 -18.523200 -5.098420 39.081100 -0.000007 -0.000012 -0.152401 0.312630 25.988400 40.985400 -0.000006 -0.000013 -4.692090 -1.413390 -65.065800 11.754300 -0.000000 0.000003 -0.000080 -0.000852 -16.610400 -2.192510 6.469440 -0.000001 175.727000 22.379300 175.634000 -39.081100 -0.002282 -0.040193 0.046318 -0.095885 24.156500 -40.985400 0.000008 0.000006 0.758874 3.793550 -63.583200 -11.754300 -0.000006 -0.000006 -0.005259 -0.063947 -19.175100
0.000000 0.000000 0.000000 0.000000 0.000000 -0.000000 -0.091108 91.850500 -2.465890 87.624000 -3.040910 4.223830 15.735700 0.000005 -0.000001 85.967800 82.349200 -85.258100 8.984550 -0.406207 -0.000000 7.505840 -1.073420 1.488510 16.377300 -0.000001 -0.000001 3.367330 -0.753123 0.583641 6.456720 -0.000001 -0.000000 0.644573 -0.033689 -2.094610 12.994200 -0.242716 4.980390 -90.044600 0.144759 -72.867600 5.348090 -0.000007 -0.000001 -58.295000 32.926000 -25.365300 24.328600 0.000019 0.000005 4.888530 6.492510 -37.104900 22.291600 -0.000001 0.000005 9.311590 5.670970 -17.525500 12.994500 -0.242716 -4.980390 88.870400 3.698660 -73.002700 -5.348130 -0.000001 -0.000004 -41.840400 50.520300 -27.654200 -24.328900 0.000322 -0.000009 4.583390 4.532320 -45.407600 -22.291500 -0.000108 -0.000004 12.854600 5.671830 -17.685900 -2.192480 -6.469440 -0.000000 -170.781000 -18.383400 -5.028070 39.081100 -0.000007 -0.000012 -0.145763 0.298719 26.010700 40.985400 -0.000006 -0.000013 -4.654890 -1.298920 -65.040600 11.754300 -0.000000 0.000003 -0.000079 -0.000841 -16.610000 -2.192510 6.469440 -0.000001 175.606000 22.521800 175.773000 -39.081100 -0.002282 -0.040193 0.045541 -0.093871 24.220200 -40.985400 0.000008 0.000006 0.615082 3.697840 -63.592200 -11.754300 -0.000006 -0.000006 -0.005264 -0.063998 -19.177200
0.000000 0.000000 0.000000 0.000000 0.000000 -0.000000 -0.130005 91.845600 -2.481470 87.639100 -2.659830 4.317520 15.735700 0.000005 -0.000001 85.595400 82.422600 -84.801200 8.984550 -0.406207 -0.000000 7.353810 -1.162410 1.661360 16.377300 -0.000001 -0.000001 3.592470 -0.820128 0.463508 6.456720 -0.000001 -0.000000 0.801570 -0.158970 -2.141510 12.994200 -0.242716 4.980390 -89.957200 -0.138154 -72.781300 5.348090 -0.000007 -0.000001 -55.261200 29.893700 -28.291500 24.328600 0.000019 0.000005 4.572560 5.628880 -39.195000 22.291600 -0.000001 0.000005 10.153800 5.672460 -17.786200 12.994500 -0.242716 -4.980390 89.064800 2.986530 -72.603800 -5.348130 -0.000001 -0.000004 -39.040600 53.597100 -26.870700 -24.328900 0.000322 -0.000009 6.072920 4.876860 -51.372400 -22.291500 -0.000108 -0.000004 12.212400 5.676130 -18.519100 -2.192480 -6.469440 -0.000000 -170.748000 -18.342200 -5.031510 39.081100 -0.000007 -0.000012 -0.147213 0.301373 26.034500 40.985400 -0.000006 -0.000013 -4.595370 -0.987427 -64.979300 11.754300 -0.000000 0.000003 -0.000075 -0.000806 -16.608600 -2.192510 6.469440 -0.000001 175.564000 22.690600 175.906000 -39.081100 -0.002282 -0.040193 0.046626 -0.096065 24.269000 -40.985400 0.000008 0.000006 0.631491 3.478110 -63.665600 -11.754300 -0.000006 -0.000006 -0.005416 -0.065437 -19.235900
0.000000 0.000000 0.000000 0.000000 0.000000 -0.000000 -0.174543 91.842600 -2.478440 87.634500 -2.232230 4.396300 15.735700 0.000005 -0.000001 84.867200 82.549500 -83.972600 8.984550 -0.406207 -0.000000 7.087660 -1.333730 1.869970 16.377300 -0.000001 -0.000001 3.876950 -0.843813 0.263130 6.456720 -0.000001 -0.000000 0.889183 -0.154258 -2.169250 12.994200 -0.242716 4.980390 -89.815400 -0.591174 -72.661900 5.348090 -0.000007 -0.000001 -52.411800 25.850000 -31.178600 24.328600 0.000019 0.000005 4.332990 4.901640 -41.566100 22.291600 -0.000001 0.000005 10.579400 5.672810 -17.845600 12.994500 -0.242716 -4.980390 89.275200 2.258730 -72.203900 -5.348130 -0.000001 -0.000004 -36.776200 56.413600 -25.393100 -24.328900 0.000322 -0.000009 7.798420 4.999240 -57.528000 -22.291500 -0.000108 -0.000004 12.044300 5.679290 -19.308800 -2.192480 -6.469440 -0.000000 -170.697000 -18.180200 -5.042220 39.081100 -0.000007 -0.000012 -0.146223 0.299245 26.042100 40.985400 -0.000006 -0.000013 -4.551600 -0.656819 -64.920600 11.754300 -0.000000 0.000003 -0.000089 -0.000927 -16.613200 -2.192510 6.469440 -0.000001 175.529000 22.990400 176.056000 -39.081100 -0.002282 -0.040193 0.046924 -0.096679 24.279600 -40.985400 0.000008 0.000006 0.683914 3.355210 -63.737800 -11.754300 -0.000006 -0.000006 -0.005146 -0.062868 -19.131200
